<mxfile host="app.diagrams.net" modified="2023-04-02T06:01:34.709Z" agent="Mozilla/5.0 (Windows NT 10.0; Win64; x64; rv:109.0) Gecko/20100101 Firefox/111.0" etag="rlZiwiw0wI8SLcwc2HQu" version="21.1.1" type="github">
  <diagram name="第 1 页" id="A-CmJrLPoKeELwo27ymS">
    <mxGraphModel dx="794" dy="520" grid="0" gridSize="10" guides="1" tooltips="1" connect="1" arrows="1" fold="1" page="1" pageScale="1" pageWidth="827" pageHeight="1169" math="0" shadow="0">
      <root>
        <mxCell id="0" />
        <mxCell id="1" parent="0" />
        <mxCell id="fyPH0XN2SUiVUbKnaisj-28" value="" style="whiteSpace=wrap;html=1;shape=mxgraph.basic.cloud_rect" vertex="1" parent="1">
          <mxGeometry x="180" y="100" width="470" height="260" as="geometry" />
        </mxCell>
        <mxCell id="fyPH0XN2SUiVUbKnaisj-2" value="quickissue" style="html=1;whiteSpace=wrap;fillColor=#dae8fc;strokeColor=#6c8ebf;" vertex="1" parent="1">
          <mxGeometry x="200" y="280" width="110" height="50" as="geometry" />
        </mxCell>
        <mxCell id="fyPH0XN2SUiVUbKnaisj-3" value="CLA" style="html=1;whiteSpace=wrap;fillColor=#dae8fc;strokeColor=#6c8ebf;" vertex="1" parent="1">
          <mxGeometry x="359" y="120" width="110" height="50" as="geometry" />
        </mxCell>
        <mxCell id="fyPH0XN2SUiVUbKnaisj-4" value="论坛" style="html=1;whiteSpace=wrap;fillColor=#dae8fc;strokeColor=#6c8ebf;" vertex="1" parent="1">
          <mxGeometry x="520" y="120" width="110" height="50" as="geometry" />
        </mxCell>
        <mxCell id="fyPH0XN2SUiVUbKnaisj-8" value="统一账号" style="html=1;whiteSpace=wrap;fillColor=#dae8fc;strokeColor=#6c8ebf;" vertex="1" parent="1">
          <mxGeometry x="359" y="200" width="110" height="50" as="geometry" />
        </mxCell>
        <mxCell id="fyPH0XN2SUiVUbKnaisj-9" value="EUR" style="html=1;whiteSpace=wrap;fillColor=#dae8fc;strokeColor=#6c8ebf;" vertex="1" parent="1">
          <mxGeometry x="200" y="200" width="110" height="50" as="geometry" />
        </mxCell>
        <mxCell id="fyPH0XN2SUiVUbKnaisj-10" value="datastat" style="html=1;whiteSpace=wrap;fillColor=#dae8fc;strokeColor=#6c8ebf;" vertex="1" parent="1">
          <mxGeometry x="520" y="200" width="110" height="50" as="geometry" />
        </mxCell>
        <mxCell id="fyPH0XN2SUiVUbKnaisj-13" value="developer" style="shape=umlActor;verticalLabelPosition=bottom;verticalAlign=top;html=1;outlineConnect=0;" vertex="1" parent="1">
          <mxGeometry x="100" y="180" width="30" height="60" as="geometry" />
        </mxCell>
        <mxCell id="fyPH0XN2SUiVUbKnaisj-14" value="user" style="shape=umlActor;verticalLabelPosition=bottom;verticalAlign=top;html=1;outlineConnect=0;" vertex="1" parent="1">
          <mxGeometry x="350" y="10" width="30" height="60" as="geometry" />
        </mxCell>
        <mxCell id="fyPH0XN2SUiVUbKnaisj-15" value="manager" style="shape=umlActor;verticalLabelPosition=bottom;verticalAlign=top;html=1;outlineConnect=0;" vertex="1" parent="1">
          <mxGeometry x="200" y="10" width="30" height="60" as="geometry" />
        </mxCell>
        <mxCell id="fyPH0XN2SUiVUbKnaisj-16" value="user" style="shape=umlActor;verticalLabelPosition=bottom;verticalAlign=top;html=1;outlineConnect=0;" vertex="1" parent="1">
          <mxGeometry x="380" y="10" width="30" height="60" as="geometry" />
        </mxCell>
        <mxCell id="fyPH0XN2SUiVUbKnaisj-17" value="mailing list" style="html=1;whiteSpace=wrap;fillColor=#dae8fc;strokeColor=#6c8ebf;" vertex="1" parent="1">
          <mxGeometry x="359" y="280" width="110" height="50" as="geometry" />
        </mxCell>
        <mxCell id="fyPH0XN2SUiVUbKnaisj-18" value="websites" style="html=1;whiteSpace=wrap;fillColor=#dae8fc;strokeColor=#6c8ebf;" vertex="1" parent="1">
          <mxGeometry x="520" y="280" width="110" height="50" as="geometry" />
        </mxCell>
        <mxCell id="fyPH0XN2SUiVUbKnaisj-29" value="developer" style="shape=umlActor;verticalLabelPosition=bottom;verticalAlign=top;html=1;outlineConnect=0;" vertex="1" parent="1">
          <mxGeometry x="110" y="190" width="30" height="60" as="geometry" />
        </mxCell>
        <mxCell id="fyPH0XN2SUiVUbKnaisj-30" value="developer" style="shape=umlActor;verticalLabelPosition=bottom;verticalAlign=top;html=1;outlineConnect=0;" vertex="1" parent="1">
          <mxGeometry x="120" y="200" width="30" height="60" as="geometry" />
        </mxCell>
        <mxCell id="fyPH0XN2SUiVUbKnaisj-33" value="bot" style="html=1;whiteSpace=wrap;fillColor=#dae8fc;strokeColor=#6c8ebf;" vertex="1" parent="1">
          <mxGeometry x="210" y="130" width="110" height="50" as="geometry" />
        </mxCell>
        <mxCell id="fyPH0XN2SUiVUbKnaisj-31" value="&lt;br&gt;&lt;div&gt;&lt;br&gt;&lt;/div&gt;&lt;div&gt;&lt;br&gt;&lt;/div&gt;&lt;div&gt;&lt;br&gt;&lt;/div&gt;&lt;div&gt;&lt;br&gt;&lt;/div&gt;&lt;div&gt;&lt;br&gt;&lt;/div&gt;&lt;div&gt;&lt;br&gt;&lt;/div&gt;&lt;div&gt;&lt;br&gt;&lt;/div&gt;&lt;div&gt;社区治理&lt;/div&gt;" style="rounded=0;whiteSpace=wrap;html=1;" vertex="1" parent="1">
          <mxGeometry x="190" y="400" width="250" height="140" as="geometry" />
        </mxCell>
        <mxCell id="fyPH0XN2SUiVUbKnaisj-7" value="会议管理" style="html=1;whiteSpace=wrap;fillColor=#58C994;strokeColor=#82b366;" vertex="1" parent="1">
          <mxGeometry x="200" y="410" width="110" height="50" as="geometry" />
        </mxCell>
        <mxCell id="fyPH0XN2SUiVUbKnaisj-32" value="kubernetes" style="html=1;whiteSpace=wrap;fillColor=#dae8fc;strokeColor=#6c8ebf;" vertex="1" parent="1">
          <mxGeometry x="190" y="710" width="520" height="50" as="geometry" />
        </mxCell>
        <mxCell id="fyPH0XN2SUiVUbKnaisj-34" value="投票" style="html=1;whiteSpace=wrap;fillColor=#58C994;strokeColor=#82b366;" vertex="1" parent="1">
          <mxGeometry x="200" y="470" width="110" height="50" as="geometry" />
        </mxCell>
        <mxCell id="fyPH0XN2SUiVUbKnaisj-35" value="权限管理" style="html=1;whiteSpace=wrap;fillColor=#58C994;strokeColor=#82b366;" vertex="1" parent="1">
          <mxGeometry x="320" y="410" width="110" height="50" as="geometry" />
        </mxCell>
        <mxCell id="fyPH0XN2SUiVUbKnaisj-38" value="构建系统" style="html=1;whiteSpace=wrap;fillColor=#dae8fc;strokeColor=#6c8ebf;" vertex="1" parent="1">
          <mxGeometry x="460" y="400" width="110" height="50" as="geometry" />
        </mxCell>
        <mxCell id="fyPH0XN2SUiVUbKnaisj-39" value="CLA签署" style="html=1;whiteSpace=wrap;fillColor=#dae8fc;strokeColor=#6c8ebf;" vertex="1" parent="1">
          <mxGeometry x="460" y="460" width="110" height="50" as="geometry" />
        </mxCell>
        <mxCell id="fyPH0XN2SUiVUbKnaisj-40" value="源码管理" style="html=1;whiteSpace=wrap;fillColor=#dae8fc;strokeColor=#6c8ebf;" vertex="1" parent="1">
          <mxGeometry x="580" y="400" width="110" height="50" as="geometry" />
        </mxCell>
        <mxCell id="fyPH0XN2SUiVUbKnaisj-41" value="CI/CD 集群" style="html=1;whiteSpace=wrap;fillColor=#dae8fc;strokeColor=#6c8ebf;" vertex="1" parent="1">
          <mxGeometry x="580" y="460" width="110" height="50" as="geometry" />
        </mxCell>
        <mxCell id="fyPH0XN2SUiVUbKnaisj-42" value="&lt;div&gt;&lt;br&gt;&lt;/div&gt;&lt;div&gt;&lt;br&gt;&lt;/div&gt;&lt;div&gt;&lt;br&gt;&lt;/div&gt;&lt;div&gt;&lt;br&gt;&lt;/div&gt;&lt;div&gt;&lt;br&gt;&lt;/div&gt;&lt;div&gt;&lt;br&gt;&lt;/div&gt;&lt;div&gt;&lt;br&gt;&lt;/div&gt;&lt;div&gt;&lt;br&gt;&lt;/div&gt;&lt;div&gt;&lt;br&gt;&lt;/div&gt;&lt;div&gt;&lt;br&gt;&lt;/div&gt;&lt;div&gt;&lt;br&gt;&lt;/div&gt;&lt;div&gt;&lt;br&gt;&lt;/div&gt;&lt;div&gt;&lt;br&gt;&lt;/div&gt;&lt;div&gt;&lt;br&gt;&lt;/div&gt;&lt;div&gt;&lt;br&gt;&lt;/div&gt;&lt;div&gt;&lt;br&gt;&lt;/div&gt;&lt;div&gt;&lt;br&gt;&lt;/div&gt;&lt;div&gt;&lt;br&gt;&lt;/div&gt;&lt;div&gt;开发领域&lt;/div&gt;" style="rounded=0;whiteSpace=wrap;html=1;" vertex="1" parent="1">
          <mxGeometry x="460" y="400" width="250" height="290" as="geometry" />
        </mxCell>
        <mxCell id="fyPH0XN2SUiVUbKnaisj-43" value="构建系统" style="html=1;whiteSpace=wrap;fillColor=#4095ea;strokeColor=#6C8EBF;" vertex="1" parent="1">
          <mxGeometry x="470" y="410" width="110" height="50" as="geometry" />
        </mxCell>
        <mxCell id="fyPH0XN2SUiVUbKnaisj-44" value="CLA签署" style="html=1;whiteSpace=wrap;fillColor=#4095ea;strokeColor=#6C8EBF;" vertex="1" parent="1">
          <mxGeometry x="470" y="470" width="110" height="50" as="geometry" />
        </mxCell>
        <mxCell id="fyPH0XN2SUiVUbKnaisj-45" value="源码管理" style="html=1;whiteSpace=wrap;fillColor=#4095ea;strokeColor=#6C8EBF;" vertex="1" parent="1">
          <mxGeometry x="590" y="410" width="110" height="50" as="geometry" />
        </mxCell>
        <mxCell id="fyPH0XN2SUiVUbKnaisj-46" value="CI/CD 集群" style="html=1;whiteSpace=wrap;fillColor=#4095ea;strokeColor=#6C8EBF;" vertex="1" parent="1">
          <mxGeometry x="590" y="470" width="110" height="50" as="geometry" />
        </mxCell>
        <mxCell id="fyPH0XN2SUiVUbKnaisj-48" value="&lt;div&gt;&lt;br&gt;&lt;/div&gt;&lt;div&gt;&lt;br&gt;&lt;/div&gt;&lt;div&gt;&lt;br&gt;&lt;/div&gt;&lt;div&gt;&lt;br&gt;&lt;/div&gt;&lt;div&gt;&lt;br&gt;&lt;/div&gt;&lt;div&gt;&lt;br&gt;&lt;/div&gt;&lt;div&gt;&lt;br&gt;&lt;/div&gt;&lt;div&gt;&lt;br&gt;&lt;/div&gt;&lt;div&gt;用户服务&lt;br&gt;&lt;/div&gt;" style="rounded=0;whiteSpace=wrap;html=1;" vertex="1" parent="1">
          <mxGeometry x="190" y="550" width="250" height="140" as="geometry" />
        </mxCell>
        <mxCell id="fyPH0XN2SUiVUbKnaisj-49" value="论坛" style="html=1;whiteSpace=wrap;fillColor=#58C994;strokeColor=#6c8ebf;" vertex="1" parent="1">
          <mxGeometry x="200" y="560" width="110" height="50" as="geometry" />
        </mxCell>
        <mxCell id="fyPH0XN2SUiVUbKnaisj-50" value="邮件列表" style="html=1;whiteSpace=wrap;fillColor=#58C994;strokeColor=#6c8ebf;" vertex="1" parent="1">
          <mxGeometry x="320" y="560" width="110" height="50" as="geometry" />
        </mxCell>
        <mxCell id="fyPH0XN2SUiVUbKnaisj-51" value="mooc" style="html=1;whiteSpace=wrap;fillColor=#58C994;strokeColor=#6c8ebf;" vertex="1" parent="1">
          <mxGeometry x="200" y="620" width="110" height="50" as="geometry" />
        </mxCell>
        <mxCell id="fyPH0XN2SUiVUbKnaisj-52" value="网站" style="html=1;whiteSpace=wrap;fillColor=#58C994;strokeColor=#6c8ebf;" vertex="1" parent="1">
          <mxGeometry x="320" y="620" width="110" height="50" as="geometry" />
        </mxCell>
        <mxCell id="fyPH0XN2SUiVUbKnaisj-53" value="构建系统" style="html=1;whiteSpace=wrap;fillColor=#4095ea;strokeColor=#6C8EBF;" vertex="1" parent="1">
          <mxGeometry x="470" y="540" width="110" height="50" as="geometry" />
        </mxCell>
        <mxCell id="fyPH0XN2SUiVUbKnaisj-54" value="软件仓库" style="html=1;whiteSpace=wrap;fillColor=#4095ea;strokeColor=#6C8EBF;" vertex="1" parent="1">
          <mxGeometry x="590" y="540" width="110" height="50" as="geometry" />
        </mxCell>
        <mxCell id="fyPH0XN2SUiVUbKnaisj-55" value="账号系统" style="html=1;whiteSpace=wrap;fillColor=#4095ea;strokeColor=#6C8EBF;" vertex="1" parent="1">
          <mxGeometry x="470" y="600" width="110" height="50" as="geometry" />
        </mxCell>
        <mxCell id="fyPH0XN2SUiVUbKnaisj-56" value="运维平台" style="html=1;whiteSpace=wrap;fillColor=#4095ea;strokeColor=#6C8EBF;" vertex="1" parent="1">
          <mxGeometry x="590" y="600" width="110" height="50" as="geometry" />
        </mxCell>
        <mxCell id="fyPH0XN2SUiVUbKnaisj-57" value="datastat" style="html=1;whiteSpace=wrap;fillColor=#58C994;strokeColor=#82b366;" vertex="1" parent="1">
          <mxGeometry x="320" y="470" width="110" height="50" as="geometry" />
        </mxCell>
        <mxCell id="fyPH0XN2SUiVUbKnaisj-71" style="edgeStyle=orthogonalEdgeStyle;rounded=0;orthogonalLoop=1;jettySize=auto;html=1;entryX=0;entryY=0.5;entryDx=0;entryDy=0;" edge="1" parent="1" source="fyPH0XN2SUiVUbKnaisj-59" target="fyPH0XN2SUiVUbKnaisj-60">
          <mxGeometry relative="1" as="geometry" />
        </mxCell>
        <mxCell id="fyPH0XN2SUiVUbKnaisj-59" value="code" style="ellipse;shape=cloud;whiteSpace=wrap;html=1;" vertex="1" parent="1">
          <mxGeometry x="134" y="1035" width="120" height="80" as="geometry" />
        </mxCell>
        <mxCell id="fyPH0XN2SUiVUbKnaisj-68" style="edgeStyle=orthogonalEdgeStyle;rounded=0;orthogonalLoop=1;jettySize=auto;html=1;entryX=0;entryY=0.5;entryDx=0;entryDy=0;" edge="1" parent="1" source="fyPH0XN2SUiVUbKnaisj-60" target="fyPH0XN2SUiVUbKnaisj-65">
          <mxGeometry relative="1" as="geometry" />
        </mxCell>
        <mxCell id="fyPH0XN2SUiVUbKnaisj-69" style="edgeStyle=orthogonalEdgeStyle;rounded=0;orthogonalLoop=1;jettySize=auto;html=1;entryX=0;entryY=0.5;entryDx=0;entryDy=0;" edge="1" parent="1" source="fyPH0XN2SUiVUbKnaisj-60" target="fyPH0XN2SUiVUbKnaisj-66">
          <mxGeometry relative="1" as="geometry" />
        </mxCell>
        <mxCell id="fyPH0XN2SUiVUbKnaisj-70" style="edgeStyle=orthogonalEdgeStyle;rounded=0;orthogonalLoop=1;jettySize=auto;html=1;entryX=0;entryY=0.5;entryDx=0;entryDy=0;" edge="1" parent="1" source="fyPH0XN2SUiVUbKnaisj-60" target="fyPH0XN2SUiVUbKnaisj-67">
          <mxGeometry relative="1" as="geometry" />
        </mxCell>
        <mxCell id="fyPH0XN2SUiVUbKnaisj-60" value="" style="shape=mxgraph.gcp2.doubleRect;strokeColor=#dddddd;shadow=1;strokeWidth=1;rounded=1;absoluteArcSize=1;arcSize=2;" vertex="1" parent="1">
          <mxGeometry x="292" y="1041" width="148" height="68" as="geometry" />
        </mxCell>
        <mxCell id="fyPH0XN2SUiVUbKnaisj-61" value="&lt;font color=&quot;#000000&quot;&gt;build system&lt;br&gt;&lt;/font&gt;" style="editableCssRules=.*;html=1;fontColor=#999999;shape=image;verticalLabelPosition=middle;labelBackgroundColor=#ffffff;verticalAlign=middle;labelPosition=right;align=left;spacingLeft=20;part=1;points=[];imageAspect=0;image=data:image/svg+xml,PHN2ZyB4bWxucz0iaHR0cDovL3d3dy53My5vcmcvMjAwMC9zdmciIHhtbG5zOnY9Imh0dHBzOi8vdmVjdGEuaW8vbmFubyIgd2lkdGg9IjE3LjMyOTk5OTkyMzcwNjA1NSIgaGVpZ2h0PSIxOS42MTAwMDA2MTAzNTE1NjIiIHZpZXdCb3g9IjAgMCAxNy4zMjk5OTk5MjM3MDYwNTUgMTkuNjEwMDAwNjEwMzUxNTYyIj4mI3hhOwk8c3R5bGUgdHlwZT0idGV4dC9jc3MiPiYjeGE7CS5zdDB7ZmlsbDojNDI4NWY0O30mI3hhOwkuc3Qxe2ZpbGw6IzY2OWRmNjt9JiN4YTsJLnN0MntmaWxsOiNhZWNiZmE7fSYjeGE7CTwvc3R5bGU+JiN4YTsJPHBhdGggY2xhc3M9InN0MCIgZD0iTTEyLjE4IDcuOThMMTEgNy4yOWwtMy41MiA2LjEgMS4xOC42OCAzLjUyLTIuMDN6IiBmaWxsPSIjNDI4NWY0Ii8+JiN4YTsJPHBhdGggY2xhc3M9InN0MSIgZD0iTTYuMzIgMTIuNzJsMy41My02LjA5LTEuMTktLjY5LTMuNTIgMi4wNHY0LjA2eiIgZmlsbD0iIzY2OWRmNiIvPiYjeGE7CTxwYXRoIGNsYXNzPSJzdDIiIGQ9Ik0zLjc1IDcuOThMMCA1LjgxdjkuMmw3Ljk3IDQuNnYtNC4zM2wtNC4yMi0yLjQ0em05LjEzLTEuMmwzLjc2LTIuMTdMOC42NiAwIC42OCA0LjYxbDMuNzYgMi4xNyA0LjIyLTIuNDR6TTkuMzUgMTkuNjFsNy45OC00LjZ2LTkuMmwtMy43NiAyLjE3djQuODZsLTQuMjIgMi40NHoiIGZpbGw9IiNhZWNiZmEiLz4mI3hhOzwvc3ZnPg==;" vertex="1" parent="fyPH0XN2SUiVUbKnaisj-60">
          <mxGeometry width="26" height="30" relative="1" as="geometry">
            <mxPoint x="17" y="15" as="offset" />
          </mxGeometry>
        </mxCell>
        <mxCell id="fyPH0XN2SUiVUbKnaisj-65" value="" style="image;aspect=fixed;perimeter=ellipsePerimeter;html=1;align=center;shadow=0;dashed=0;spacingTop=3;image=img/lib/active_directory/database_partition_2.svg;" vertex="1" parent="1">
          <mxGeometry x="502" y="1001" width="50" height="37" as="geometry" />
        </mxCell>
        <mxCell id="fyPH0XN2SUiVUbKnaisj-66" value="" style="image;aspect=fixed;perimeter=ellipsePerimeter;html=1;align=center;shadow=0;dashed=0;spacingTop=3;image=img/lib/active_directory/database_partition_2.svg;" vertex="1" parent="1">
          <mxGeometry x="502" y="1056.5" width="50" height="37" as="geometry" />
        </mxCell>
        <mxCell id="fyPH0XN2SUiVUbKnaisj-67" value="" style="image;aspect=fixed;perimeter=ellipsePerimeter;html=1;align=center;shadow=0;dashed=0;spacingTop=3;image=img/lib/active_directory/database_partition_2.svg;" vertex="1" parent="1">
          <mxGeometry x="502" y="1115" width="50" height="37" as="geometry" />
        </mxCell>
      </root>
    </mxGraphModel>
  </diagram>
</mxfile>
